<svg xmlns="http://www.w3.org/2000/svg" xmlns:xlink="http://www.w3.org/1999/xlink" contentStyleType="text/css" height="558px" preserveAspectRatio="none" style="width:722px;height:558px;background:#FFFFFF;" version="1.1" viewBox="0 0 722 558" width="722px" zoomAndPan="magnify"><defs/><g><!--class PtrSource--><g id="elem_PtrSource"><rect codeLine="1" fill="#F1F1F1" height="64.2969" id="PtrSource" rx="2.5" ry="2.5" style="stroke:#181818;stroke-width:0.5;" width="100.833" x="7" y="23.5"/><ellipse cx="22.3393" cy="39.5" fill="#B4A7E5" rx="11" ry="11" style="stroke:#181818;stroke-width:1;"/><path d="M18.2611,35.2656 L18.2611,33.1094 L25.6518,33.1094 L25.6518,35.2656 L23.183,35.2656 L23.183,43.3438 L25.6518,43.3438 L25.6518,45.5 L18.2611,45.5 L18.2611,43.3438 L20.7299,43.3438 L20.7299,35.2656 L18.2611,35.2656 Z " fill="#000000"/><text fill="#000000" font-family="sans-serif" font-size="14" font-style="italic" lengthAdjust="spacing" textLength="68.0791" x="36.4146" y="44.3467">PtrSource</text><line style="stroke:#181818;stroke-width:0.5;" x1="8" x2="106.833" y1="55.5" y2="55.5"/><line style="stroke:#181818;stroke-width:0.5;" x1="8" x2="106.833" y1="63.5" y2="63.5"/><text fill="#000000" font-family="sans-serif" font-size="14" lengthAdjust="spacing" textLength="88.833" x="13" y="80.4951">IntVar[] ptr()</text></g><!--class NavTable--><g id="elem_NavTable"><rect codeLine="5" fill="#F1F1F1" height="96.8906" id="NavTable" rx="2.5" ry="2.5" style="stroke:#181818;stroke-width:0.5;" width="144.959" x="469" y="7"/><ellipse cx="505.1957" cy="23" fill="#B4A7E5" rx="11" ry="11" style="stroke:#181818;stroke-width:1;"/><path d="M501.1176,18.7656 L501.1176,16.6094 L508.5082,16.6094 L508.5082,18.7656 L506.0395,18.7656 L506.0395,26.8438 L508.5082,26.8438 L508.5082,29 L501.1176,29 L501.1176,26.8438 L503.5863,26.8438 L503.5863,18.7656 L501.1176,18.7656 Z " fill="#000000"/><text fill="#000000" font-family="sans-serif" font-size="14" font-style="italic" lengthAdjust="spacing" textLength="65.8574" x="523.9059" y="27.8467">NavTable</text><line style="stroke:#181818;stroke-width:0.5;" x1="470" x2="612.959" y1="39" y2="39"/><line style="stroke:#181818;stroke-width:0.5;" x1="470" x2="612.959" y1="47" y2="47"/><text fill="#000000" font-family="sans-serif" font-size="14" lengthAdjust="spacing" textLength="132.959" x="475" y="63.9951">IntVar[] navTable()</text><text fill="#000000" font-family="sans-serif" font-size="14" lengthAdjust="spacing" textLength="113.9619" x="475" y="80.292">int rows(), cols()</text><text fill="#000000" font-family="sans-serif" font-size="14" lengthAdjust="spacing" textLength="83.9863" x="475" y="96.5889">int lb(), ub()</text></g><!--class PtrTable--><g id="elem_PtrTable"><rect codeLine="10" fill="#F1F1F1" height="48" id="PtrTable" rx="2.5" ry="2.5" style="stroke:#181818;stroke-width:0.5;" width="90.208" x="496.5" y="213.5"/><ellipse cx="511.5" cy="229.5" fill="#ADD1B2" rx="11" ry="11" style="stroke:#181818;stroke-width:1;"/><path d="M514.4688,235.1406 Q513.8906,235.4375 513.25,235.5781 Q512.6094,235.7344 511.9063,235.7344 Q509.4063,235.7344 508.0781,234.0938 Q506.7656,232.4375 506.7656,229.3125 Q506.7656,226.1875 508.0781,224.5313 Q509.4063,222.875 511.9063,222.875 Q512.6094,222.875 513.25,223.0313 Q513.9063,223.1875 514.4688,223.4844 L514.4688,226.2031 Q513.8438,225.625 513.25,225.3594 Q512.6563,225.0781 512.0313,225.0781 Q510.6875,225.0781 510,226.1563 Q509.3125,227.2188 509.3125,229.3125 Q509.3125,231.4063 510,232.4844 Q510.6875,233.5469 512.0313,233.5469 Q512.6563,233.5469 513.25,233.2813 Q513.8438,233 514.4688,232.4219 L514.4688,235.1406 Z " fill="#000000"/><text fill="#000000" font-family="sans-serif" font-size="14" lengthAdjust="spacing" textLength="58.208" x="525.5" y="234.3467">PtrTable</text><line style="stroke:#181818;stroke-width:0.5;" x1="497.5" x2="585.708" y1="245.5" y2="245.5"/><line style="stroke:#181818;stroke-width:0.5;" x1="497.5" x2="585.708" y1="253.5" y2="253.5"/></g><!--class VarTable--><g id="elem_VarTable"><rect codeLine="11" fill="#F1F1F1" height="48" id="VarTable" rx="2.5" ry="2.5" style="stroke:#181818;stroke-width:0.5;" width="94.4326" x="559.5" y="324"/><ellipse cx="574.5" cy="340" fill="#ADD1B2" rx="11" ry="11" style="stroke:#181818;stroke-width:1;"/><path d="M577.4688,345.6406 Q576.8906,345.9375 576.25,346.0781 Q575.6094,346.2344 574.9063,346.2344 Q572.4063,346.2344 571.0781,344.5938 Q569.7656,342.9375 569.7656,339.8125 Q569.7656,336.6875 571.0781,335.0313 Q572.4063,333.375 574.9063,333.375 Q575.6094,333.375 576.25,333.5313 Q576.9063,333.6875 577.4688,333.9844 L577.4688,336.7031 Q576.8438,336.125 576.25,335.8594 Q575.6563,335.5781 575.0313,335.5781 Q573.6875,335.5781 573,336.6563 Q572.3125,337.7188 572.3125,339.8125 Q572.3125,341.9063 573,342.9844 Q573.6875,344.0469 575.0313,344.0469 Q575.6563,344.0469 576.25,343.7813 Q576.8438,343.5 577.4688,342.9219 L577.4688,345.6406 Z " fill="#000000"/><text fill="#000000" font-family="sans-serif" font-size="14" lengthAdjust="spacing" textLength="62.4326" x="588.5" y="344.8467">VarTable</text><line style="stroke:#181818;stroke-width:0.5;" x1="560.5" x2="652.9326" y1="356" y2="356"/><line style="stroke:#181818;stroke-width:0.5;" x1="560.5" x2="652.9326" y1="364" y2="364"/></g><!--class NavCSP--><g id="elem_NavCSP"><rect codeLine="13" fill="#F1F1F1" height="113.1875" id="NavCSP" rx="2.5" ry="2.5" style="stroke:#181818;stroke-width:0.5;" width="257.7246" x="64.5" y="181"/><ellipse cx="161.8916" cy="197" fill="#ADD1B2" rx="11" ry="11" style="stroke:#181818;stroke-width:1;"/><path d="M164.8604,202.6406 Q164.2822,202.9375 163.6416,203.0781 Q163.001,203.2344 162.2979,203.2344 Q159.7979,203.2344 158.4697,201.5938 Q157.1572,199.9375 157.1572,196.8125 Q157.1572,193.6875 158.4697,192.0313 Q159.7979,190.375 162.2979,190.375 Q163.001,190.375 163.6416,190.5313 Q164.2979,190.6875 164.8604,190.9844 L164.8604,193.7031 Q164.2354,193.125 163.6416,192.8594 Q163.0479,192.5781 162.4229,192.5781 Q161.0791,192.5781 160.3916,193.6563 Q159.7041,194.7188 159.7041,196.8125 Q159.7041,198.9063 160.3916,199.9844 Q161.0791,201.0469 162.4229,201.0469 Q163.0479,201.0469 163.6416,200.7813 Q164.2354,200.5 164.8604,199.9219 L164.8604,202.6406 Z " fill="#000000"/><text fill="#000000" font-family="sans-serif" font-size="14" lengthAdjust="spacing" textLength="54.4414" x="182.3916" y="201.8467">NavCSP</text><line style="stroke:#181818;stroke-width:0.5;" x1="65.5" x2="321.2246" y1="213" y2="213"/><text fill="#000000" font-family="sans-serif" font-size="14" lengthAdjust="spacing" textLength="227.0625" x="70.5" y="229.9951">IntVar[|src.ptr| * prop.cols] vars;</text><line style="stroke:#181818;stroke-width:0.5;" x1="65.5" x2="321.2246" y1="237.2969" y2="237.2969"/><text fill="#000000" font-family="sans-serif" font-size="14" lengthAdjust="spacing" textLength="229.5371" x="70.5" y="254.292">for(i &lt;|src.ptr|, j&lt;prop.cols) k++</text><text fill="#000000" font-family="sans-serif" font-size="14" lengthAdjust="spacing" textLength="203.6084" x="70.5" y="270.5889">off = src.ptr(i) * prop.cols + j</text><text fill="#000000" font-family="sans-serif" font-size="14" lengthAdjust="spacing" textLength="245.7246" x="70.5" y="286.8857">element(off,prop.navTable,vars[k])</text></g><!--class Nav2Ptr--><g id="elem_Nav2Ptr"><rect codeLine="23" fill="#F1F1F1" height="48" id="Nav2Ptr" rx="2.5" ry="2.5" style="stroke:#181818;stroke-width:0.5;" width="87.9316" x="58.5" y="402"/><ellipse cx="73.5" cy="418" fill="#ADD1B2" rx="11" ry="11" style="stroke:#181818;stroke-width:1;"/><path d="M76.4688,423.6406 Q75.8906,423.9375 75.25,424.0781 Q74.6094,424.2344 73.9063,424.2344 Q71.4063,424.2344 70.0781,422.5938 Q68.7656,420.9375 68.7656,417.8125 Q68.7656,414.6875 70.0781,413.0313 Q71.4063,411.375 73.9063,411.375 Q74.6094,411.375 75.25,411.5313 Q75.9063,411.6875 76.4688,411.9844 L76.4688,414.7031 Q75.8438,414.125 75.25,413.8594 Q74.6563,413.5781 74.0313,413.5781 Q72.6875,413.5781 72,414.6563 Q71.3125,415.7188 71.3125,417.8125 Q71.3125,419.9063 72,420.9844 Q72.6875,422.0469 74.0313,422.0469 Q74.6563,422.0469 75.25,421.7813 Q75.8438,421.5 76.4688,420.9219 L76.4688,423.6406 Z " fill="#000000"/><text fill="#000000" font-family="sans-serif" font-size="14" lengthAdjust="spacing" textLength="55.9316" x="87.5" y="422.8467">Nav2Ptr</text><line style="stroke:#181818;stroke-width:0.5;" x1="59.5" x2="145.4316" y1="434" y2="434"/><line style="stroke:#181818;stroke-width:0.5;" x1="59.5" x2="145.4316" y1="442" y2="442"/></g><!--class Nav2Var--><g id="elem_Nav2Var"><rect codeLine="24" fill="#F1F1F1" height="48" id="Nav2Var" rx="2.5" ry="2.5" style="stroke:#181818;stroke-width:0.5;" width="92.1563" x="363.5" y="402"/><ellipse cx="378.5" cy="418" fill="#ADD1B2" rx="11" ry="11" style="stroke:#181818;stroke-width:1;"/><path d="M381.4688,423.6406 Q380.8906,423.9375 380.25,424.0781 Q379.6094,424.2344 378.9063,424.2344 Q376.4063,424.2344 375.0781,422.5938 Q373.7656,420.9375 373.7656,417.8125 Q373.7656,414.6875 375.0781,413.0313 Q376.4063,411.375 378.9063,411.375 Q379.6094,411.375 380.25,411.5313 Q380.9063,411.6875 381.4688,411.9844 L381.4688,414.7031 Q380.8438,414.125 380.25,413.8594 Q379.6563,413.5781 379.0313,413.5781 Q377.6875,413.5781 377,414.6563 Q376.3125,415.7188 376.3125,417.8125 Q376.3125,419.9063 377,420.9844 Q377.6875,422.0469 379.0313,422.0469 Q379.6563,422.0469 380.25,421.7813 Q380.8438,421.5 381.4688,420.9219 L381.4688,423.6406 Z " fill="#000000"/><text fill="#000000" font-family="sans-serif" font-size="14" lengthAdjust="spacing" textLength="60.1563" x="392.5" y="422.8467">Nav2Var</text><line style="stroke:#181818;stroke-width:0.5;" x1="364.5" x2="454.6563" y1="434" y2="434"/><line style="stroke:#181818;stroke-width:0.5;" x1="364.5" x2="454.6563" y1="442" y2="442"/></g><!--class VarSource--><g id="elem_VarSource"><rect fill="#F1F1F1" height="48" id="VarSource" rx="2.5" ry="2.5" style="stroke:#181818;stroke-width:0.5;" width="104.3037" x="357.5" y="213.5"/><ellipse cx="372.5" cy="229.5" fill="#B4A7E5" rx="11" ry="11" style="stroke:#181818;stroke-width:1;"/><path d="M368.4219,225.2656 L368.4219,223.1094 L375.8125,223.1094 L375.8125,225.2656 L373.3438,225.2656 L373.3438,233.3438 L375.8125,233.3438 L375.8125,235.5 L368.4219,235.5 L368.4219,233.3438 L370.8906,233.3438 L370.8906,225.2656 L368.4219,225.2656 Z " fill="#000000"/><text fill="#000000" font-family="sans-serif" font-size="14" font-style="italic" lengthAdjust="spacing" textLength="72.3037" x="386.5" y="234.3467">VarSource</text><line style="stroke:#181818;stroke-width:0.5;" x1="358.5" x2="460.8037" y1="245.5" y2="245.5"/><line style="stroke:#181818;stroke-width:0.5;" x1="358.5" x2="460.8037" y1="253.5" y2="253.5"/></g><g id="elem_N1"><path d="M327.5,511 L327.5,551.2656 L715.4644,551.2656 L715.4644,521 L705.4644,511 L327.5,511 " fill="#FEFFDD" style="stroke:#181818;stroke-width:0.5;"/><path d="M705.4644,511 L705.4644,521 L715.4644,521 L705.4644,511 " fill="#FEFFDD" style="stroke:#181818;stroke-width:1;"/><text fill="#000000" font-family="sans-serif" font-size="13" lengthAdjust="spacing" textLength="366.9644" x="333.5" y="528.0669">depending on the type of the NavTable Implementation,</text><text fill="#000000" font-family="sans-serif" font-size="13" lengthAdjust="spacing" textLength="235.3647" x="337.6323" y="543.1997">we make a different type of NavCSP</text></g><!--reverse link NavTable to PtrTable--><g id="link_NavTable_PtrTable"><path d="M541.5,122.26 C541.5,157.47 541.5,185.82 541.5,213.26 " fill="none" id="NavTable-backto-PtrTable" style="stroke:#181818;stroke-width:1;stroke-dasharray:7.0,7.0;"/><polygon fill="none" points="541.5,104.26,535.5,122.26,547.5,122.26,541.5,104.26" style="stroke:#181818;stroke-width:1;"/></g><!--reverse link NavTable to VarTable--><g id="link_NavTable_VarTable"><path d="M580.929,119.8347 C593.569,142.2247 597.93,154.18 604.5,181 C616.67,230.69 612.93,291.28 609.48,323.76 " fill="none" id="NavTable-backto-VarTable" style="stroke:#181818;stroke-width:1;stroke-dasharray:7.0,7.0;"/><polygon fill="none" points="572.08,104.16,575.7041,122.7843,586.1539,116.885,572.08,104.16" style="stroke:#181818;stroke-width:1;"/></g><!--reverse link PtrSource to NavCSP--><g id="link_PtrSource_NavCSP"><path codeLine="20" d="M84.8064,92.6376 C104.1364,118.2276 128.31,150.22 151.41,180.79 " fill="none" id="PtrSource-backto-NavCSP" style="stroke:#181818;stroke-width:1;"/><polygon fill="#181818" points="81.19,87.85,83.4229,97.4424,84.2037,91.8397,89.8064,92.6205,81.19,87.85" style="stroke:#181818;stroke-width:1;"/><text fill="#000000" font-family="sans-serif" font-size="13" lengthAdjust="spacing" textLength="19.2651" x="126.5" y="147.0669">src</text></g><!--reverse link NavTable to NavCSP--><g id="link_NavTable_NavCSP"><path codeLine="21" d="M463.6408,96.7667 C415.0408,121.9067 355.53,152.69 300.96,180.92 " fill="none" id="NavTable-backto-NavCSP" style="stroke:#181818;stroke-width:1;"/><polygon fill="#181818" points="468.97,94.01,459.1384,94.5923,464.529,96.3073,462.814,101.6979,468.97,94.01" style="stroke:#181818;stroke-width:1;"/><text fill="#000000" font-family="sans-serif" font-size="13" lengthAdjust="spacing" textLength="29.8022" x="389.5" y="147.0669">prop</text></g><!--reverse link NavCSP to Nav2Ptr--><g id="link_NavCSP_Nav2Ptr"><path d="M158.4276,310.3774 C140.9376,346.2274 127,374.79 113.93,401.56 " fill="none" id="NavCSP-backto-Nav2Ptr" style="stroke:#181818;stroke-width:1;"/><polygon fill="none" points="166.32,294.2,153.0351,307.7466,163.8201,313.0083,166.32,294.2" style="stroke:#181818;stroke-width:1;"/></g><!--reverse link PtrSource to Nav2Ptr--><g id="link_PtrSource_Nav2Ptr"><path d="M48.0769,105.3417 C39.9369,151.0917 31.59,221.21 46.5,294 C54.64,333.74 75.33,376.32 89.15,401.8 " fill="none" id="PtrSource-backto-Nav2Ptr" style="stroke:#181818;stroke-width:1;stroke-dasharray:7.0,7.0;"/><polygon fill="none" points="51.23,87.62,42.1697,104.2906,53.9841,106.3927,51.23,87.62" style="stroke:#181818;stroke-width:1;"/></g><!--reverse link NavCSP to Nav2Var--><g id="link_NavCSP_Nav2Var"><path d="M271.6345,305.9632 C313.2845,341.9232 351.66,375.06 382.64,401.8 " fill="none" id="NavCSP-backto-Nav2Var" style="stroke:#181818;stroke-width:1;"/><polygon fill="none" points="258.01,294.2,267.7134,310.5047,275.5556,301.4217,258.01,294.2" style="stroke:#181818;stroke-width:1;"/></g><!--reverse link VarSource to Nav2Var--><g id="link_VarSource_Nav2Var"><path d="M409.5,279.74 C409.5,315.58 409.5,365.92 409.5,401.76 " fill="none" id="VarSource-backto-Nav2Var" style="stroke:#181818;stroke-width:1;stroke-dasharray:7.0,7.0;"/><polygon fill="none" points="409.5,261.74,403.5,279.74,415.5,279.74,409.5,261.74" style="stroke:#181818;stroke-width:1;"/></g><!--link VarTable to N1--><g id="link_VarTable_N1"><path codeLine="27" d="M595.56,372.29 C578.57,408.48 546.15,477.51 530.46,510.93 " fill="none" id="VarTable-N1" style="stroke:#181818;stroke-width:1;stroke-dasharray:7.0,7.0;"/></g><!--link Nav2Var to N1--><g id="link_Nav2Var_N1"><path codeLine="28" d="M434.63,450.12 C454.5,468.38 481.9,493.58 500.58,510.76 " fill="none" id="Nav2Var-N1" style="stroke:#181818;stroke-width:1;stroke-dasharray:7.0,7.0;"/></g><!--SRC=[VP4nRy8m48Lt_uedfgI4IEtOqgaJIuL4rOKoc71f3S6E70Ej2l-zPvEOq04FKNptlNjtPwKTsL8MXAcpCxEp1VqAy9bezoxjV87QsIGL9o5KH5_b_aqkg_-aRiEC-pZpiERG96c6mbHDBrmjVN2t38MBIZQDjmzYg6rTqPQqQou-7SG-jw2MuiZBR8ghxewDBN8UvOWxrDRKkUzeWRsqpLFWmgSqDb4OHpZ3UXpf59lXC63-cBB4CremKMc_BePOHv3EZIOio0BHhIdpvlFD8Wts9n4V0EFHg1lYqLk8RiRhZA_Mc_c12u2-7UbLt45lJvVtFVKql9iR6iv6ZT364GOhgXbM-XD6mtqHt4zDl8tm7_kST3MaKqPd7ne7mbPk218hLPPaEHUbP-C19FTmB-8Zvxc_Tbs6sny0]--></g></svg>