<svg xmlns="http://www.w3.org/2000/svg" xmlns:xlink="http://www.w3.org/1999/xlink" contentStyleType="text/css" height="553px" preserveAspectRatio="none" style="width:2049px;height:553px;background:#FFFFFF;" version="1.1" viewBox="0 0 2049 553" width="2049px" zoomAndPan="magnify"><defs/><g><!--cluster UMLCSP--><g id="cluster_UMLCSP"><path d="M8.5,6 L74.3389,6 A3.75,3.75 0 0 1 76.8389,8.5 L83.8389,28.2969 L934.5,28.2969 A2.5,2.5 0 0 1 937,30.7969 L937,543.5 A2.5,2.5 0 0 1 934.5,546 L8.5,546 A2.5,2.5 0 0 1 6,543.5 L6,8.5 A2.5,2.5 0 0 1 8.5,6 " fill="none" style="stroke:#000000;stroke-width:1.5;"/><line style="stroke:#000000;stroke-width:1.5;" x1="6" x2="83.8389" y1="28.2969" y2="28.2969"/><text fill="#000000" font-family="sans-serif" font-size="14" font-weight="bold" lengthAdjust="spacing" textLength="64.8389" x="10" y="20.9951">UMLCSP</text></g><!--cluster OCLCSP--><g id="cluster_OCLCSP"><path d="M963.5,6 L1026.2148,6 A3.75,3.75 0 0 1 1028.7148,8.5 L1035.7148,28.2969 L2039.5,28.2969 A2.5,2.5 0 0 1 2042,30.7969 L2042,543.5 A2.5,2.5 0 0 1 2039.5,546 L963.5,546 A2.5,2.5 0 0 1 961,543.5 L961,8.5 A2.5,2.5 0 0 1 963.5,6 " fill="none" style="stroke:#000000;stroke-width:1.5;"/><line style="stroke:#000000;stroke-width:1.5;" x1="961" x2="1035.7148" y1="28.2969" y2="28.2969"/><text fill="#000000" font-family="sans-serif" font-size="14" font-weight="bold" lengthAdjust="spacing" textLength="61.7148" x="965" y="20.9951">OCLCSP</text></g><!--class IntTable--><g id="elem_IntTable"><rect codeLine="3" fill="#F1F1F1" height="113.1875" id="IntTable" rx="2.5" ry="2.5" style="stroke:#181818;stroke-width:0.5;" width="166.499" x="451" y="150"/><ellipse cx="501.4937" cy="166" fill="#ADD1B2" rx="11" ry="11" style="stroke:#181818;stroke-width:1;"/><path d="M504.4624,171.6406 Q503.8843,171.9375 503.2437,172.0781 Q502.603,172.2344 501.8999,172.2344 Q499.3999,172.2344 498.0718,170.5938 Q496.7593,168.9375 496.7593,165.8125 Q496.7593,162.6875 498.0718,161.0313 Q499.3999,159.375 501.8999,159.375 Q502.603,159.375 503.2437,159.5313 Q503.8999,159.6875 504.4624,159.9844 L504.4624,162.7031 Q503.8374,162.125 503.2437,161.8594 Q502.6499,161.5781 502.0249,161.5781 Q500.6812,161.5781 499.9937,162.6563 Q499.3062,163.7188 499.3062,165.8125 Q499.3062,167.9063 499.9937,168.9844 Q500.6812,170.0469 502.0249,170.0469 Q502.6499,170.0469 503.2437,169.7813 Q503.8374,169.5 504.4624,168.9219 L504.4624,171.6406 Z " fill="#000000"/><text fill="#000000" font-family="sans-serif" font-size="14" lengthAdjust="spacing" textLength="57.0117" x="521.9937" y="170.8467">IntTable</text><line style="stroke:#181818;stroke-width:0.5;" x1="452" x2="616.499" y1="182" y2="182"/><text fill="#000000" font-family="sans-serif" font-size="14" lengthAdjust="spacing" textLength="92.1143" x="457" y="198.9951">int rows, cols</text><text fill="#000000" font-family="sans-serif" font-size="14" lengthAdjust="spacing" textLength="154.499" x="457" y="215.292">int minCard, maxCard</text><text fill="#000000" font-family="sans-serif" font-size="14" lengthAdjust="spacing" textLength="114.3379" x="457" y="231.5889">IntVar[][] matrix</text><text fill="#000000" font-family="sans-serif" font-size="14" lengthAdjust="spacing" textLength="109.0742" x="457" y="247.8857">IntVar[] nullrow</text><line style="stroke:#181818;stroke-width:0.5;" x1="452" x2="616.499" y1="255.1875" y2="255.1875"/></g><!--class NavTable--><g id="elem_NavTable"><rect fill="#F1F1F1" height="48" id="NavTable" rx="2.5" ry="2.5" style="stroke:#181818;stroke-width:0.5;" width="97.8574" x="485" y="41"/><ellipse cx="500" cy="57" fill="#B4A7E5" rx="11" ry="11" style="stroke:#181818;stroke-width:1;"/><path d="M495.9219,52.7656 L495.9219,50.6094 L503.3125,50.6094 L503.3125,52.7656 L500.8438,52.7656 L500.8438,60.8438 L503.3125,60.8438 L503.3125,63 L495.9219,63 L495.9219,60.8438 L498.3906,60.8438 L498.3906,52.7656 L495.9219,52.7656 Z " fill="#000000"/><text fill="#000000" font-family="sans-serif" font-size="14" font-style="italic" lengthAdjust="spacing" textLength="65.8574" x="514" y="61.8467">NavTable</text><line style="stroke:#181818;stroke-width:0.5;" x1="486" x2="581.8574" y1="73" y2="73"/><line style="stroke:#181818;stroke-width:0.5;" x1="486" x2="581.8574" y1="81" y2="81"/></g><!--class AttributeTable--><g id="elem_AttributeTable"><rect codeLine="10" fill="#F1F1F1" height="48" id="AttributeTable" rx="2.5" ry="2.5" style="stroke:#181818;stroke-width:0.5;" width="132.584" x="787.5" y="356.5"/><ellipse cx="802.5" cy="372.5" fill="#ADD1B2" rx="11" ry="11" style="stroke:#181818;stroke-width:1;"/><path d="M805.4688,378.1406 Q804.8906,378.4375 804.25,378.5781 Q803.6094,378.7344 802.9063,378.7344 Q800.4063,378.7344 799.0781,377.0938 Q797.7656,375.4375 797.7656,372.3125 Q797.7656,369.1875 799.0781,367.5313 Q800.4063,365.875 802.9063,365.875 Q803.6094,365.875 804.25,366.0313 Q804.9063,366.1875 805.4688,366.4844 L805.4688,369.2031 Q804.8438,368.625 804.25,368.3594 Q803.6563,368.0781 803.0313,368.0781 Q801.6875,368.0781 801,369.1563 Q800.3125,370.2188 800.3125,372.3125 Q800.3125,374.4063 801,375.4844 Q801.6875,376.5469 803.0313,376.5469 Q803.6563,376.5469 804.25,376.2813 Q804.8438,376 805.4688,375.4219 L805.4688,378.1406 Z " fill="#000000"/><text fill="#000000" font-family="sans-serif" font-size="14" lengthAdjust="spacing" textLength="100.584" x="816.5" y="377.3467">AttributeTable</text><line style="stroke:#181818;stroke-width:0.5;" x1="788.5" x2="919.084" y1="388.5" y2="388.5"/><line style="stroke:#181818;stroke-width:0.5;" x1="788.5" x2="919.084" y1="396.5" y2="396.5"/></g><!--class AttributeTableRow--><g id="elem_AttributeTableRow"><rect codeLine="11" fill="#F1F1F1" height="48" id="AttributeTableRow" rx="2.5" ry="2.5" style="stroke:#181818;stroke-width:0.5;" width="162.3271" x="694" y="482"/><ellipse cx="709" cy="498" fill="#ADD1B2" rx="11" ry="11" style="stroke:#181818;stroke-width:1;"/><path d="M711.9688,503.6406 Q711.3906,503.9375 710.75,504.0781 Q710.1094,504.2344 709.4063,504.2344 Q706.9063,504.2344 705.5781,502.5938 Q704.2656,500.9375 704.2656,497.8125 Q704.2656,494.6875 705.5781,493.0313 Q706.9063,491.375 709.4063,491.375 Q710.1094,491.375 710.75,491.5313 Q711.4063,491.6875 711.9688,491.9844 L711.9688,494.7031 Q711.3438,494.125 710.75,493.8594 Q710.1563,493.5781 709.5313,493.5781 Q708.1875,493.5781 707.5,494.6563 Q706.8125,495.7188 706.8125,497.8125 Q706.8125,499.9063 707.5,500.9844 Q708.1875,502.0469 709.5313,502.0469 Q710.1563,502.0469 710.75,501.7813 Q711.3438,501.5 711.9688,500.9219 L711.9688,503.6406 Z " fill="#000000"/><text fill="#000000" font-family="sans-serif" font-size="14" lengthAdjust="spacing" textLength="130.3271" x="723" y="502.8467">AttributeTableRow</text><line style="stroke:#181818;stroke-width:0.5;" x1="695" x2="855.3271" y1="514" y2="514"/><line style="stroke:#181818;stroke-width:0.5;" x1="695" x2="855.3271" y1="522" y2="522"/></g><!--class VarsSource--><g id="elem_VarsSource"><rect fill="#F1F1F1" height="48" id="VarsSource" rx="2.5" ry="2.5" style="stroke:#181818;stroke-width:0.5;" width="111.5977" x="640" y="356.5"/><ellipse cx="655" cy="372.5" fill="#B4A7E5" rx="11" ry="11" style="stroke:#181818;stroke-width:1;"/><path d="M650.9219,368.2656 L650.9219,366.1094 L658.3125,366.1094 L658.3125,368.2656 L655.8438,368.2656 L655.8438,376.3438 L658.3125,376.3438 L658.3125,378.5 L650.9219,378.5 L650.9219,376.3438 L653.3906,376.3438 L653.3906,368.2656 L650.9219,368.2656 Z " fill="#000000"/><text fill="#000000" font-family="sans-serif" font-size="14" font-style="italic" lengthAdjust="spacing" textLength="79.5977" x="669" y="377.3467">VarsSource</text><line style="stroke:#181818;stroke-width:0.5;" x1="641" x2="750.5977" y1="388.5" y2="388.5"/><line style="stroke:#181818;stroke-width:0.5;" x1="641" x2="750.5977" y1="396.5" y2="396.5"/></g><!--class ReferenceTable--><g id="elem_ReferenceTable"><rect codeLine="14" fill="#F1F1F1" height="80.5938" id="ReferenceTable" rx="2.5" ry="2.5" style="stroke:#181818;stroke-width:0.5;" width="141.9561" x="463" y="340"/><ellipse cx="478" cy="356" fill="#ADD1B2" rx="11" ry="11" style="stroke:#181818;stroke-width:1;"/><path d="M480.9688,361.6406 Q480.3906,361.9375 479.75,362.0781 Q479.1094,362.2344 478.4063,362.2344 Q475.9063,362.2344 474.5781,360.5938 Q473.2656,358.9375 473.2656,355.8125 Q473.2656,352.6875 474.5781,351.0313 Q475.9063,349.375 478.4063,349.375 Q479.1094,349.375 479.75,349.5313 Q480.4063,349.6875 480.9688,349.9844 L480.9688,352.7031 Q480.3438,352.125 479.75,351.8594 Q479.1563,351.5781 478.5313,351.5781 Q477.1875,351.5781 476.5,352.6563 Q475.8125,353.7188 475.8125,355.8125 Q475.8125,357.9063 476.5,358.9844 Q477.1875,360.0469 478.5313,360.0469 Q479.1563,360.0469 479.75,359.7813 Q480.3438,359.5 480.9688,358.9219 L480.9688,361.6406 Z " fill="#000000"/><text fill="#000000" font-family="sans-serif" font-size="14" lengthAdjust="spacing" textLength="109.9561" x="492" y="360.8467">ReferenceTable</text><line style="stroke:#181818;stroke-width:0.5;" x1="464" x2="603.9561" y1="372" y2="372"/><text fill="#000000" font-family="sans-serif" font-size="14" lengthAdjust="spacing" textLength="57.6885" x="469" y="388.9951">int lb,ub</text><text fill="#000000" font-family="sans-serif" font-size="14" lengthAdjust="spacing" textLength="123.4502" x="469" y="405.292">IntVar occ_matrix</text><line style="stroke:#181818;stroke-width:0.5;" x1="464" x2="603.9561" y1="412.5938" y2="412.5938"/></g><!--class AdjList--><g id="elem_AdjList"><rect codeLine="19" fill="#F1F1F1" height="48" id="AdjList" rx="2.5" ry="2.5" style="stroke:#181818;stroke-width:0.5;" width="78.8262" x="362.5" y="482"/><ellipse cx="377.5" cy="498" fill="#ADD1B2" rx="11" ry="11" style="stroke:#181818;stroke-width:1;"/><path d="M380.4688,503.6406 Q379.8906,503.9375 379.25,504.0781 Q378.6094,504.2344 377.9063,504.2344 Q375.4063,504.2344 374.0781,502.5938 Q372.7656,500.9375 372.7656,497.8125 Q372.7656,494.6875 374.0781,493.0313 Q375.4063,491.375 377.9063,491.375 Q378.6094,491.375 379.25,491.5313 Q379.9063,491.6875 380.4688,491.9844 L380.4688,494.7031 Q379.8438,494.125 379.25,493.8594 Q378.6563,493.5781 378.0313,493.5781 Q376.6875,493.5781 376,494.6563 Q375.3125,495.7188 375.3125,497.8125 Q375.3125,499.9063 376,500.9844 Q376.6875,502.0469 378.0313,502.0469 Q378.6563,502.0469 379.25,501.7813 Q379.8438,501.5 380.4688,500.9219 L380.4688,503.6406 Z " fill="#000000"/><text fill="#000000" font-family="sans-serif" font-size="14" lengthAdjust="spacing" textLength="46.8262" x="391.5" y="502.8467">AdjList</text><line style="stroke:#181818;stroke-width:0.5;" x1="363.5" x2="440.3262" y1="514" y2="514"/><line style="stroke:#181818;stroke-width:0.5;" x1="363.5" x2="440.3262" y1="522" y2="522"/></g><!--class PtrSource--><g id="elem_PtrSource"><rect fill="#F1F1F1" height="48" id="PtrSource" rx="2.5" ry="2.5" style="stroke:#181818;stroke-width:0.5;" width="100.0791" x="328" y="356.5"/><ellipse cx="343" cy="372.5" fill="#B4A7E5" rx="11" ry="11" style="stroke:#181818;stroke-width:1;"/><path d="M338.9219,368.2656 L338.9219,366.1094 L346.3125,366.1094 L346.3125,368.2656 L343.8438,368.2656 L343.8438,376.3438 L346.3125,376.3438 L346.3125,378.5 L338.9219,378.5 L338.9219,376.3438 L341.3906,376.3438 L341.3906,368.2656 L338.9219,368.2656 Z " fill="#000000"/><text fill="#000000" font-family="sans-serif" font-size="14" font-style="italic" lengthAdjust="spacing" textLength="68.0791" x="357" y="377.3467">PtrSource</text><line style="stroke:#181818;stroke-width:0.5;" x1="329" x2="427.0791" y1="388.5" y2="388.5"/><line style="stroke:#181818;stroke-width:0.5;" x1="329" x2="427.0791" y1="396.5" y2="396.5"/></g><!--class SingleIntTable--><g id="elem_SingleIntTable"><rect codeLine="22" fill="#F1F1F1" height="48" id="SingleIntTable" rx="2.5" ry="2.5" style="stroke:#181818;stroke-width:0.5;" width="132.0508" x="161" y="356.5"/><ellipse cx="176" cy="372.5" fill="#ADD1B2" rx="11" ry="11" style="stroke:#181818;stroke-width:1;"/><path d="M178.9688,378.1406 Q178.3906,378.4375 177.75,378.5781 Q177.1094,378.7344 176.4063,378.7344 Q173.9063,378.7344 172.5781,377.0938 Q171.2656,375.4375 171.2656,372.3125 Q171.2656,369.1875 172.5781,367.5313 Q173.9063,365.875 176.4063,365.875 Q177.1094,365.875 177.75,366.0313 Q178.4063,366.1875 178.9688,366.4844 L178.9688,369.2031 Q178.3438,368.625 177.75,368.3594 Q177.1563,368.0781 176.5313,368.0781 Q175.1875,368.0781 174.5,369.1563 Q173.8125,370.2188 173.8125,372.3125 Q173.8125,374.4063 174.5,375.4844 Q175.1875,376.5469 176.5313,376.5469 Q177.1563,376.5469 177.75,376.2813 Q178.3438,376 178.9688,375.4219 L178.9688,378.1406 Z " fill="#000000"/><text fill="#000000" font-family="sans-serif" font-size="14" lengthAdjust="spacing" textLength="100.0508" x="190" y="377.3467">SingleIntTable</text><line style="stroke:#181818;stroke-width:0.5;" x1="162" x2="292.0508" y1="388.5" y2="388.5"/><line style="stroke:#181818;stroke-width:0.5;" x1="162" x2="292.0508" y1="396.5" y2="396.5"/></g><!--class SingleIntTableRow--><g id="elem_SingleIntTableRow"><rect codeLine="23" fill="#F1F1F1" height="48" id="SingleIntTableRow" rx="2.5" ry="2.5" style="stroke:#181818;stroke-width:0.5;" width="161.7939" x="106" y="482"/><ellipse cx="121" cy="498" fill="#ADD1B2" rx="11" ry="11" style="stroke:#181818;stroke-width:1;"/><path d="M123.9688,503.6406 Q123.3906,503.9375 122.75,504.0781 Q122.1094,504.2344 121.4063,504.2344 Q118.9063,504.2344 117.5781,502.5938 Q116.2656,500.9375 116.2656,497.8125 Q116.2656,494.6875 117.5781,493.0313 Q118.9063,491.375 121.4063,491.375 Q122.1094,491.375 122.75,491.5313 Q123.4063,491.6875 123.9688,491.9844 L123.9688,494.7031 Q123.3438,494.125 122.75,493.8594 Q122.1563,493.5781 121.5313,493.5781 Q120.1875,493.5781 119.5,494.6563 Q118.8125,495.7188 118.8125,497.8125 Q118.8125,499.9063 119.5,500.9844 Q120.1875,502.0469 121.5313,502.0469 Q122.1563,502.0469 122.75,501.7813 Q123.3438,501.5 123.9688,500.9219 L123.9688,503.6406 Z " fill="#000000"/><text fill="#000000" font-family="sans-serif" font-size="14" lengthAdjust="spacing" textLength="129.7939" x="135" y="502.8467">SingleIntTableRow</text><line style="stroke:#181818;stroke-width:0.5;" x1="107" x2="266.7939" y1="514" y2="514"/><line style="stroke:#181818;stroke-width:0.5;" x1="107" x2="266.7939" y1="522" y2="522"/></g><!--class VarSource--><g id="elem_VarSource"><rect fill="#F1F1F1" height="48" id="VarSource" rx="2.5" ry="2.5" style="stroke:#181818;stroke-width:0.5;" width="104.3037" x="22" y="356.5"/><ellipse cx="37" cy="372.5" fill="#B4A7E5" rx="11" ry="11" style="stroke:#181818;stroke-width:1;"/><path d="M32.9219,368.2656 L32.9219,366.1094 L40.3125,366.1094 L40.3125,368.2656 L37.8438,368.2656 L37.8438,376.3438 L40.3125,376.3438 L40.3125,378.5 L32.9219,378.5 L32.9219,376.3438 L35.3906,376.3438 L35.3906,368.2656 L32.9219,368.2656 Z " fill="#000000"/><text fill="#000000" font-family="sans-serif" font-size="14" font-style="italic" lengthAdjust="spacing" textLength="72.3037" x="51" y="377.3467">VarSource</text><line style="stroke:#181818;stroke-width:0.5;" x1="23" x2="125.3037" y1="388.5" y2="388.5"/><line style="stroke:#181818;stroke-width:0.5;" x1="23" x2="125.3037" y1="396.5" y2="396.5"/></g><!--class NavTable--><g id="elem_NavTable"><rect codeLine="29" fill="#F1F1F1" height="113.1875" id="NavTable" rx="2.5" ry="2.5" style="stroke:#181818;stroke-width:0.5;" width="144.959" x="1254.5" y="150"/><ellipse cx="1290.6957" cy="166" fill="#B4A7E5" rx="11" ry="11" style="stroke:#181818;stroke-width:1;"/><path d="M1286.6176,161.7656 L1286.6176,159.6094 L1294.0082,159.6094 L1294.0082,161.7656 L1291.5395,161.7656 L1291.5395,169.8438 L1294.0082,169.8438 L1294.0082,172 L1286.6176,172 L1286.6176,169.8438 L1289.0863,169.8438 L1289.0863,161.7656 L1286.6176,161.7656 Z " fill="#000000"/><text fill="#000000" font-family="sans-serif" font-size="14" font-style="italic" lengthAdjust="spacing" textLength="65.8574" x="1309.4059" y="170.8467">NavTable</text><line style="stroke:#181818;stroke-width:0.5;" x1="1255.5" x2="1398.459" y1="182" y2="182"/><line style="stroke:#181818;stroke-width:0.5;" x1="1255.5" x2="1398.459" y1="190" y2="190"/><text fill="#000000" font-family="sans-serif" font-size="14" lengthAdjust="spacing" textLength="46.4023" x="1260.5" y="206.9951">int lb()</text><text fill="#000000" font-family="sans-serif" font-size="14" lengthAdjust="spacing" textLength="51.3857" x="1260.5" y="223.292">int ub()</text><text fill="#000000" font-family="sans-serif" font-size="14" lengthAdjust="spacing" textLength="61.0723" x="1260.5" y="239.5889">int cols()</text><text fill="#000000" font-family="sans-serif" font-size="14" lengthAdjust="spacing" textLength="132.959" x="1260.5" y="255.8857">IntVar[] navTable()</text></g><!--class Source--><g id="elem_Source"><rect codeLine="35" fill="#F1F1F1" height="48" id="Source" rx="2.5" ry="2.5" style="stroke:#181818;stroke-width:0.5;" width="80.3916" x="1544" y="41"/><ellipse cx="1559" cy="57" fill="#B4A7E5" rx="11" ry="11" style="stroke:#181818;stroke-width:1;"/><path d="M1554.9219,52.7656 L1554.9219,50.6094 L1562.3125,50.6094 L1562.3125,52.7656 L1559.8438,52.7656 L1559.8438,60.8438 L1562.3125,60.8438 L1562.3125,63 L1554.9219,63 L1554.9219,60.8438 L1557.3906,60.8438 L1557.3906,52.7656 L1554.9219,52.7656 Z " fill="#000000"/><text fill="#000000" font-family="sans-serif" font-size="14" font-style="italic" lengthAdjust="spacing" textLength="48.3916" x="1573" y="61.8467">Source</text><line style="stroke:#181818;stroke-width:0.5;" x1="1545" x2="1623.3916" y1="73" y2="73"/><line style="stroke:#181818;stroke-width:0.5;" x1="1545" x2="1623.3916" y1="81" y2="81"/></g><!--class PtrSource--><g id="elem_PtrSource"><rect codeLine="36" fill="#F1F1F1" height="48" id="PtrSource" rx="2.5" ry="2.5" style="stroke:#181818;stroke-width:0.5;" width="100.0791" x="977" y="182.5"/><ellipse cx="992" cy="198.5" fill="#B4A7E5" rx="11" ry="11" style="stroke:#181818;stroke-width:1;"/><path d="M987.9219,194.2656 L987.9219,192.1094 L995.3125,192.1094 L995.3125,194.2656 L992.8438,194.2656 L992.8438,202.3438 L995.3125,202.3438 L995.3125,204.5 L987.9219,204.5 L987.9219,202.3438 L990.3906,202.3438 L990.3906,194.2656 L987.9219,194.2656 Z " fill="#000000"/><text fill="#000000" font-family="sans-serif" font-size="14" font-style="italic" lengthAdjust="spacing" textLength="68.0791" x="1006" y="203.3467">PtrSource</text><line style="stroke:#181818;stroke-width:0.5;" x1="978" x2="1076.0791" y1="214.5" y2="214.5"/><line style="stroke:#181818;stroke-width:0.5;" x1="978" x2="1076.0791" y1="222.5" y2="222.5"/></g><!--class OccSource--><g id="elem_OccSource"><rect codeLine="37" fill="#F1F1F1" height="48" id="OccSource" rx="2.5" ry="2.5" style="stroke:#181818;stroke-width:0.5;" width="106.8057" x="1112.5" y="182.5"/><ellipse cx="1127.5" cy="198.5" fill="#B4A7E5" rx="11" ry="11" style="stroke:#181818;stroke-width:1;"/><path d="M1123.4219,194.2656 L1123.4219,192.1094 L1130.8125,192.1094 L1130.8125,194.2656 L1128.3438,194.2656 L1128.3438,202.3438 L1130.8125,202.3438 L1130.8125,204.5 L1123.4219,204.5 L1123.4219,202.3438 L1125.8906,202.3438 L1125.8906,194.2656 L1123.4219,194.2656 Z " fill="#000000"/><text fill="#000000" font-family="sans-serif" font-size="14" font-style="italic" lengthAdjust="spacing" textLength="74.8057" x="1141.5" y="203.3467">OccSource</text><line style="stroke:#181818;stroke-width:0.5;" x1="1113.5" x2="1218.3057" y1="214.5" y2="214.5"/><line style="stroke:#181818;stroke-width:0.5;" x1="1113.5" x2="1218.3057" y1="222.5" y2="222.5"/></g><!--class VarsSource--><g id="elem_VarsSource"><rect codeLine="38" fill="#F1F1F1" height="48" id="VarsSource" rx="2.5" ry="2.5" style="stroke:#181818;stroke-width:0.5;" width="111.5977" x="1435" y="182.5"/><ellipse cx="1450" cy="198.5" fill="#B4A7E5" rx="11" ry="11" style="stroke:#181818;stroke-width:1;"/><path d="M1445.9219,194.2656 L1445.9219,192.1094 L1453.3125,192.1094 L1453.3125,194.2656 L1450.8438,194.2656 L1450.8438,202.3438 L1453.3125,202.3438 L1453.3125,204.5 L1445.9219,204.5 L1445.9219,202.3438 L1448.3906,202.3438 L1448.3906,194.2656 L1445.9219,194.2656 Z " fill="#000000"/><text fill="#000000" font-family="sans-serif" font-size="14" font-style="italic" lengthAdjust="spacing" textLength="79.5977" x="1464" y="203.3467">VarsSource</text><line style="stroke:#181818;stroke-width:0.5;" x1="1436" x2="1545.5977" y1="214.5" y2="214.5"/><line style="stroke:#181818;stroke-width:0.5;" x1="1436" x2="1545.5977" y1="222.5" y2="222.5"/></g><!--class VarSource--><g id="elem_VarSource"><rect codeLine="39" fill="#F1F1F1" height="48" id="VarSource" rx="2.5" ry="2.5" style="stroke:#181818;stroke-width:0.5;" width="104.3037" x="1722" y="182.5"/><ellipse cx="1737" cy="198.5" fill="#B4A7E5" rx="11" ry="11" style="stroke:#181818;stroke-width:1;"/><path d="M1732.9219,194.2656 L1732.9219,192.1094 L1740.3125,192.1094 L1740.3125,194.2656 L1737.8438,194.2656 L1737.8438,202.3438 L1740.3125,202.3438 L1740.3125,204.5 L1732.9219,204.5 L1732.9219,202.3438 L1735.3906,202.3438 L1735.3906,194.2656 L1732.9219,194.2656 Z " fill="#000000"/><text fill="#000000" font-family="sans-serif" font-size="14" font-style="italic" lengthAdjust="spacing" textLength="72.3037" x="1751" y="203.3467">VarSource</text><line style="stroke:#181818;stroke-width:0.5;" x1="1723" x2="1825.3037" y1="214.5" y2="214.5"/><line style="stroke:#181818;stroke-width:0.5;" x1="1723" x2="1825.3037" y1="222.5" y2="222.5"/></g><!--class BoolSource--><g id="elem_BoolSource"><rect codeLine="40" fill="#F1F1F1" height="48" id="BoolSource" rx="2.5" ry="2.5" style="stroke:#181818;stroke-width:0.5;" width="111.0166" x="1864.5" y="182.5"/><ellipse cx="1879.5" cy="198.5" fill="#B4A7E5" rx="11" ry="11" style="stroke:#181818;stroke-width:1;"/><path d="M1875.4219,194.2656 L1875.4219,192.1094 L1882.8125,192.1094 L1882.8125,194.2656 L1880.3438,194.2656 L1880.3438,202.3438 L1882.8125,202.3438 L1882.8125,204.5 L1875.4219,204.5 L1875.4219,202.3438 L1877.8906,202.3438 L1877.8906,194.2656 L1875.4219,194.2656 Z " fill="#000000"/><text fill="#000000" font-family="sans-serif" font-size="14" font-style="italic" lengthAdjust="spacing" textLength="79.0166" x="1893.5" y="203.3467">BoolSource</text><line style="stroke:#181818;stroke-width:0.5;" x1="1865.5" x2="1974.5166" y1="214.5" y2="214.5"/><line style="stroke:#181818;stroke-width:0.5;" x1="1865.5" x2="1974.5166" y1="222.5" y2="222.5"/></g><!--class navCSP--><g id="elem_navCSP"><rect codeLine="43" fill="#F1F1F1" height="48" id="navCSP" rx="2.5" ry="2.5" style="stroke:#181818;stroke-width:0.5;" width="84.8418" x="1144.5" y="356.5"/><ellipse cx="1159.5" cy="372.5" fill="#ADD1B2" rx="11" ry="11" style="stroke:#181818;stroke-width:1;"/><path d="M1162.4688,378.1406 Q1161.8906,378.4375 1161.25,378.5781 Q1160.6094,378.7344 1159.9063,378.7344 Q1157.4063,378.7344 1156.0781,377.0938 Q1154.7656,375.4375 1154.7656,372.3125 Q1154.7656,369.1875 1156.0781,367.5313 Q1157.4063,365.875 1159.9063,365.875 Q1160.6094,365.875 1161.25,366.0313 Q1161.9063,366.1875 1162.4688,366.4844 L1162.4688,369.2031 Q1161.8438,368.625 1161.25,368.3594 Q1160.6563,368.0781 1160.0313,368.0781 Q1158.6875,368.0781 1158,369.1563 Q1157.3125,370.2188 1157.3125,372.3125 Q1157.3125,374.4063 1158,375.4844 Q1158.6875,376.5469 1160.0313,376.5469 Q1160.6563,376.5469 1161.25,376.2813 Q1161.8438,376 1162.4688,375.4219 L1162.4688,378.1406 Z " fill="#000000"/><text fill="#000000" font-family="sans-serif" font-size="14" lengthAdjust="spacing" textLength="52.8418" x="1173.5" y="377.3467">navCSP</text><line style="stroke:#181818;stroke-width:0.5;" x1="1145.5" x2="1228.3418" y1="388.5" y2="388.5"/><line style="stroke:#181818;stroke-width:0.5;" x1="1145.5" x2="1228.3418" y1="396.5" y2="396.5"/></g><!--class nav2ptrCSP--><g id="elem_nav2ptrCSP"><rect codeLine="47" fill="#F1F1F1" height="48" id="nav2ptrCSP" rx="2.5" ry="2.5" style="stroke:#181818;stroke-width:0.5;" width="113.8809" x="1025" y="482"/><ellipse cx="1040" cy="498" fill="#ADD1B2" rx="11" ry="11" style="stroke:#181818;stroke-width:1;"/><path d="M1042.9688,503.6406 Q1042.3906,503.9375 1041.75,504.0781 Q1041.1094,504.2344 1040.4063,504.2344 Q1037.9063,504.2344 1036.5781,502.5938 Q1035.2656,500.9375 1035.2656,497.8125 Q1035.2656,494.6875 1036.5781,493.0313 Q1037.9063,491.375 1040.4063,491.375 Q1041.1094,491.375 1041.75,491.5313 Q1042.4063,491.6875 1042.9688,491.9844 L1042.9688,494.7031 Q1042.3438,494.125 1041.75,493.8594 Q1041.1563,493.5781 1040.5313,493.5781 Q1039.1875,493.5781 1038.5,494.6563 Q1037.8125,495.7188 1037.8125,497.8125 Q1037.8125,499.9063 1038.5,500.9844 Q1039.1875,502.0469 1040.5313,502.0469 Q1041.1563,502.0469 1041.75,501.7813 Q1042.3438,501.5 1042.9688,500.9219 L1042.9688,503.6406 Z " fill="#000000"/><text fill="#000000" font-family="sans-serif" font-size="14" lengthAdjust="spacing" textLength="81.8809" x="1054" y="502.8467">nav2ptrCSP</text><line style="stroke:#181818;stroke-width:0.5;" x1="1026" x2="1137.8809" y1="514" y2="514"/><line style="stroke:#181818;stroke-width:0.5;" x1="1026" x2="1137.8809" y1="522" y2="522"/></g><!--class nav2intsCSP--><g id="elem_nav2intsCSP"><rect codeLine="48" fill="#F1F1F1" height="48" id="nav2intsCSP" rx="2.5" ry="2.5" style="stroke:#181818;stroke-width:0.5;" width="119.2949" x="1174.5" y="482"/><ellipse cx="1189.5" cy="498" fill="#ADD1B2" rx="11" ry="11" style="stroke:#181818;stroke-width:1;"/><path d="M1192.4688,503.6406 Q1191.8906,503.9375 1191.25,504.0781 Q1190.6094,504.2344 1189.9063,504.2344 Q1187.4063,504.2344 1186.0781,502.5938 Q1184.7656,500.9375 1184.7656,497.8125 Q1184.7656,494.6875 1186.0781,493.0313 Q1187.4063,491.375 1189.9063,491.375 Q1190.6094,491.375 1191.25,491.5313 Q1191.9063,491.6875 1192.4688,491.9844 L1192.4688,494.7031 Q1191.8438,494.125 1191.25,493.8594 Q1190.6563,493.5781 1190.0313,493.5781 Q1188.6875,493.5781 1188,494.6563 Q1187.3125,495.7188 1187.3125,497.8125 Q1187.3125,499.9063 1188,500.9844 Q1188.6875,502.0469 1190.0313,502.0469 Q1190.6563,502.0469 1191.25,501.7813 Q1191.8438,501.5 1192.4688,500.9219 L1192.4688,503.6406 Z " fill="#000000"/><text fill="#000000" font-family="sans-serif" font-size="14" lengthAdjust="spacing" textLength="87.2949" x="1203.5" y="502.8467">nav2intsCSP</text><line style="stroke:#181818;stroke-width:0.5;" x1="1175.5" x2="1292.7949" y1="514" y2="514"/><line style="stroke:#181818;stroke-width:0.5;" x1="1175.5" x2="1292.7949" y1="522" y2="522"/></g><!--class nav2intCSP--><g id="elem_nav2intCSP"><rect codeLine="49" fill="#F1F1F1" height="48" id="nav2intCSP" rx="2.5" ry="2.5" style="stroke:#181818;stroke-width:0.5;" width="112.001" x="1465" y="482"/><ellipse cx="1480" cy="498" fill="#ADD1B2" rx="11" ry="11" style="stroke:#181818;stroke-width:1;"/><path d="M1482.9688,503.6406 Q1482.3906,503.9375 1481.75,504.0781 Q1481.1094,504.2344 1480.4063,504.2344 Q1477.9063,504.2344 1476.5781,502.5938 Q1475.2656,500.9375 1475.2656,497.8125 Q1475.2656,494.6875 1476.5781,493.0313 Q1477.9063,491.375 1480.4063,491.375 Q1481.1094,491.375 1481.75,491.5313 Q1482.4063,491.6875 1482.9688,491.9844 L1482.9688,494.7031 Q1482.3438,494.125 1481.75,493.8594 Q1481.1563,493.5781 1480.5313,493.5781 Q1479.1875,493.5781 1478.5,494.6563 Q1477.8125,495.7188 1477.8125,497.8125 Q1477.8125,499.9063 1478.5,500.9844 Q1479.1875,502.0469 1480.5313,502.0469 Q1481.1563,502.0469 1481.75,501.7813 Q1482.3438,501.5 1482.9688,500.9219 L1482.9688,503.6406 Z " fill="#000000"/><text fill="#000000" font-family="sans-serif" font-size="14" lengthAdjust="spacing" textLength="80.001" x="1494" y="502.8467">nav2intCSP</text><line style="stroke:#181818;stroke-width:0.5;" x1="1466" x2="1576.001" y1="514" y2="514"/><line style="stroke:#181818;stroke-width:0.5;" x1="1466" x2="1576.001" y1="522" y2="522"/></g><!--class SizeNode--><g id="elem_SizeNode"><rect codeLine="52" fill="#F1F1F1" height="48" id="SizeNode" rx="2.5" ry="2.5" style="stroke:#181818;stroke-width:0.5;" width="97.2764" x="1437.5" y="356.5"/><ellipse cx="1452.5" cy="372.5" fill="#ADD1B2" rx="11" ry="11" style="stroke:#181818;stroke-width:1;"/><path d="M1455.4688,378.1406 Q1454.8906,378.4375 1454.25,378.5781 Q1453.6094,378.7344 1452.9063,378.7344 Q1450.4063,378.7344 1449.0781,377.0938 Q1447.7656,375.4375 1447.7656,372.3125 Q1447.7656,369.1875 1449.0781,367.5313 Q1450.4063,365.875 1452.9063,365.875 Q1453.6094,365.875 1454.25,366.0313 Q1454.9063,366.1875 1455.4688,366.4844 L1455.4688,369.2031 Q1454.8438,368.625 1454.25,368.3594 Q1453.6563,368.0781 1453.0313,368.0781 Q1451.6875,368.0781 1451,369.1563 Q1450.3125,370.2188 1450.3125,372.3125 Q1450.3125,374.4063 1451,375.4844 Q1451.6875,376.5469 1453.0313,376.5469 Q1453.6563,376.5469 1454.25,376.2813 Q1454.8438,376 1455.4688,375.4219 L1455.4688,378.1406 Z " fill="#000000"/><text fill="#000000" font-family="sans-serif" font-size="14" lengthAdjust="spacing" textLength="65.2764" x="1466.5" y="377.3467">SizeNode</text><line style="stroke:#181818;stroke-width:0.5;" x1="1438.5" x2="1533.7764" y1="388.5" y2="388.5"/><line style="stroke:#181818;stroke-width:0.5;" x1="1438.5" x2="1533.7764" y1="396.5" y2="396.5"/></g><!--class SumNode--><g id="elem_SumNode"><rect codeLine="54" fill="#F1F1F1" height="48" id="SumNode" rx="2.5" ry="2.5" style="stroke:#181818;stroke-width:0.5;" width="99.9355" x="1302" y="356.5"/><ellipse cx="1317" cy="372.5" fill="#ADD1B2" rx="11" ry="11" style="stroke:#181818;stroke-width:1;"/><path d="M1319.9688,378.1406 Q1319.3906,378.4375 1318.75,378.5781 Q1318.1094,378.7344 1317.4063,378.7344 Q1314.9063,378.7344 1313.5781,377.0938 Q1312.2656,375.4375 1312.2656,372.3125 Q1312.2656,369.1875 1313.5781,367.5313 Q1314.9063,365.875 1317.4063,365.875 Q1318.1094,365.875 1318.75,366.0313 Q1319.4063,366.1875 1319.9688,366.4844 L1319.9688,369.2031 Q1319.3438,368.625 1318.75,368.3594 Q1318.1563,368.0781 1317.5313,368.0781 Q1316.1875,368.0781 1315.5,369.1563 Q1314.8125,370.2188 1314.8125,372.3125 Q1314.8125,374.4063 1315.5,375.4844 Q1316.1875,376.5469 1317.5313,376.5469 Q1318.1563,376.5469 1318.75,376.2813 Q1319.3438,376 1319.9688,375.4219 L1319.9688,378.1406 Z " fill="#000000"/><text fill="#000000" font-family="sans-serif" font-size="14" lengthAdjust="spacing" textLength="67.9355" x="1331" y="377.3467">SumNode</text><line style="stroke:#181818;stroke-width:0.5;" x1="1303" x2="1400.9355" y1="388.5" y2="388.5"/><line style="stroke:#181818;stroke-width:0.5;" x1="1303" x2="1400.9355" y1="396.5" y2="396.5"/></g><!--class LessThanNode--><g id="elem_LessThanNode"><rect codeLine="56" fill="#F1F1F1" height="48" id="LessThanNode" rx="2.5" ry="2.5" style="stroke:#181818;stroke-width:0.5;" width="134.416" x="1739" y="356.5"/><ellipse cx="1754" cy="372.5" fill="#ADD1B2" rx="11" ry="11" style="stroke:#181818;stroke-width:1;"/><path d="M1756.9688,378.1406 Q1756.3906,378.4375 1755.75,378.5781 Q1755.1094,378.7344 1754.4063,378.7344 Q1751.9063,378.7344 1750.5781,377.0938 Q1749.2656,375.4375 1749.2656,372.3125 Q1749.2656,369.1875 1750.5781,367.5313 Q1751.9063,365.875 1754.4063,365.875 Q1755.1094,365.875 1755.75,366.0313 Q1756.4063,366.1875 1756.9688,366.4844 L1756.9688,369.2031 Q1756.3438,368.625 1755.75,368.3594 Q1755.1563,368.0781 1754.5313,368.0781 Q1753.1875,368.0781 1752.5,369.1563 Q1751.8125,370.2188 1751.8125,372.3125 Q1751.8125,374.4063 1752.5,375.4844 Q1753.1875,376.5469 1754.5313,376.5469 Q1755.1563,376.5469 1755.75,376.2813 Q1756.3438,376 1756.9688,375.4219 L1756.9688,378.1406 Z " fill="#000000"/><text fill="#000000" font-family="sans-serif" font-size="14" lengthAdjust="spacing" textLength="102.416" x="1768" y="377.3467">LessThanNode</text><line style="stroke:#181818;stroke-width:0.5;" x1="1740" x2="1872.416" y1="388.5" y2="388.5"/><line style="stroke:#181818;stroke-width:0.5;" x1="1740" x2="1872.416" y1="396.5" y2="396.5"/></g><!--class PlusNode--><g id="elem_PlusNode"><rect codeLine="59" fill="#F1F1F1" height="48" id="PlusNode" rx="2.5" ry="2.5" style="stroke:#181818;stroke-width:0.5;" width="97.0371" x="1569.5" y="356.5"/><ellipse cx="1584.5" cy="372.5" fill="#ADD1B2" rx="11" ry="11" style="stroke:#181818;stroke-width:1;"/><path d="M1587.4688,378.1406 Q1586.8906,378.4375 1586.25,378.5781 Q1585.6094,378.7344 1584.9063,378.7344 Q1582.4063,378.7344 1581.0781,377.0938 Q1579.7656,375.4375 1579.7656,372.3125 Q1579.7656,369.1875 1581.0781,367.5313 Q1582.4063,365.875 1584.9063,365.875 Q1585.6094,365.875 1586.25,366.0313 Q1586.9063,366.1875 1587.4688,366.4844 L1587.4688,369.2031 Q1586.8438,368.625 1586.25,368.3594 Q1585.6563,368.0781 1585.0313,368.0781 Q1583.6875,368.0781 1583,369.1563 Q1582.3125,370.2188 1582.3125,372.3125 Q1582.3125,374.4063 1583,375.4844 Q1583.6875,376.5469 1585.0313,376.5469 Q1585.6563,376.5469 1586.25,376.2813 Q1586.8438,376 1587.4688,375.4219 L1587.4688,378.1406 Z " fill="#000000"/><text fill="#000000" font-family="sans-serif" font-size="14" lengthAdjust="spacing" textLength="65.0371" x="1598.5" y="377.3467">PlusNode</text><line style="stroke:#181818;stroke-width:0.5;" x1="1570.5" x2="1665.5371" y1="388.5" y2="388.5"/><line style="stroke:#181818;stroke-width:0.5;" x1="1570.5" x2="1665.5371" y1="396.5" y2="396.5"/></g><!--class LogicalNode--><g id="elem_LogicalNode"><rect codeLine="62" fill="#F1F1F1" height="48" id="LogicalNode" rx="2.5" ry="2.5" style="stroke:#181818;stroke-width:0.5;" width="117.8457" x="1908" y="356.5"/><ellipse cx="1923" cy="372.5" fill="#ADD1B2" rx="11" ry="11" style="stroke:#181818;stroke-width:1;"/><path d="M1925.9688,378.1406 Q1925.3906,378.4375 1924.75,378.5781 Q1924.1094,378.7344 1923.4063,378.7344 Q1920.9063,378.7344 1919.5781,377.0938 Q1918.2656,375.4375 1918.2656,372.3125 Q1918.2656,369.1875 1919.5781,367.5313 Q1920.9063,365.875 1923.4063,365.875 Q1924.1094,365.875 1924.75,366.0313 Q1925.4063,366.1875 1925.9688,366.4844 L1925.9688,369.2031 Q1925.3438,368.625 1924.75,368.3594 Q1924.1563,368.0781 1923.5313,368.0781 Q1922.1875,368.0781 1921.5,369.1563 Q1920.8125,370.2188 1920.8125,372.3125 Q1920.8125,374.4063 1921.5,375.4844 Q1922.1875,376.5469 1923.5313,376.5469 Q1924.1563,376.5469 1924.75,376.2813 Q1925.3438,376 1925.9688,375.4219 L1925.9688,378.1406 Z " fill="#000000"/><text fill="#000000" font-family="sans-serif" font-size="14" lengthAdjust="spacing" textLength="85.8457" x="1937" y="377.3467">LogicalNode</text><line style="stroke:#181818;stroke-width:0.5;" x1="1909" x2="2024.8457" y1="388.5" y2="388.5"/><line style="stroke:#181818;stroke-width:0.5;" x1="1909" x2="2024.8457" y1="396.5" y2="396.5"/></g><!--class SelfNode--><g id="elem_SelfNode"><rect codeLine="65" fill="#F1F1F1" height="48" id="SelfNode" rx="2.5" ry="2.5" style="stroke:#181818;stroke-width:0.5;" width="94.8564" x="1014.5" y="356.5"/><ellipse cx="1029.5" cy="372.5" fill="#ADD1B2" rx="11" ry="11" style="stroke:#181818;stroke-width:1;"/><path d="M1032.4688,378.1406 Q1031.8906,378.4375 1031.25,378.5781 Q1030.6094,378.7344 1029.9063,378.7344 Q1027.4063,378.7344 1026.0781,377.0938 Q1024.7656,375.4375 1024.7656,372.3125 Q1024.7656,369.1875 1026.0781,367.5313 Q1027.4063,365.875 1029.9063,365.875 Q1030.6094,365.875 1031.25,366.0313 Q1031.9063,366.1875 1032.4688,366.4844 L1032.4688,369.2031 Q1031.8438,368.625 1031.25,368.3594 Q1030.6563,368.0781 1030.0313,368.0781 Q1028.6875,368.0781 1028,369.1563 Q1027.3125,370.2188 1027.3125,372.3125 Q1027.3125,374.4063 1028,375.4844 Q1028.6875,376.5469 1030.0313,376.5469 Q1030.6563,376.5469 1031.25,376.2813 Q1031.8438,376 1032.4688,375.4219 L1032.4688,378.1406 Z " fill="#000000"/><text fill="#000000" font-family="sans-serif" font-size="14" lengthAdjust="spacing" textLength="62.8564" x="1043.5" y="377.3467">SelfNode</text><line style="stroke:#181818;stroke-width:0.5;" x1="1015.5" x2="1108.3564" y1="388.5" y2="388.5"/><line style="stroke:#181818;stroke-width:0.5;" x1="1015.5" x2="1108.3564" y1="396.5" y2="396.5"/></g><!--reverse link NavTable to IntTable--><g id="link_NavTable_IntTable"><path d="M534,107.04 C534,123.6 534,128.66 534,149.9 " fill="none" id="NavTable-backto-IntTable" style="stroke:#181818;stroke-width:1;stroke-dasharray:7.0,7.0;"/><polygon fill="none" points="534,89.04,528,107.04,540,107.04,534,89.04" style="stroke:#181818;stroke-width:1;"/></g><!--reverse link IntTable to AttributeTable--><g id="link_IntTable_AttributeTable"><path d="M633.0945,260.7627 C695.1345,294.1127 761.49,329.78 810.92,356.34 " fill="none" id="IntTable-backto-AttributeTable" style="stroke:#181818;stroke-width:1;"/><polygon fill="none" points="617.24,252.24,630.2536,266.0475,635.9354,255.4778,617.24,252.24" style="stroke:#181818;stroke-width:1;"/></g><!--reverse link VarsSource to AttributeTableRow--><g id="link_VarsSource_AttributeTableRow"><path d="M720.5575,419.8944 C734.6775,441.9744 746.11,459.83 760.21,481.87 " fill="none" id="VarsSource-backto-AttributeTableRow" style="stroke:#181818;stroke-width:1;stroke-dasharray:7.0,7.0;"/><polygon fill="none" points="710.86,404.73,715.5027,423.1269,725.6123,416.6619,710.86,404.73" style="stroke:#181818;stroke-width:1;"/></g><!--reverse link AttributeTable to AttributeTableRow--><g id="link_AttributeTable_AttributeTableRow"><path codeLine="12" d="M832.675,414.8396 C818.555,436.9196 803.89,459.83 789.79,481.87 " fill="none" id="AttributeTable-backto-AttributeTableRow" style="stroke:#181818;stroke-width:1;"/><polygon fill="#181818" points="839.14,404.73,832.5376,407.6298,832.675,414.8396,839.2774,411.9398,839.14,404.73" style="stroke:#181818;stroke-width:1;"/></g><!--reverse link IntTable to ReferenceTable--><g id="link_IntTable_ReferenceTable"><path d="M534,281.34 C534,306.36 534,317.27 534,339.99 " fill="none" id="IntTable-backto-ReferenceTable" style="stroke:#181818;stroke-width:1;"/><polygon fill="none" points="534,263.34,528,281.34,540,281.34,534,263.34" style="stroke:#181818;stroke-width:1;"/></g><!--reverse link PtrSource to AdjList--><g id="link_PtrSource_AdjList"><path d="M385.9508,422.3981 C390.2508,444.4781 393.22,459.83 397.51,481.87 " fill="none" id="PtrSource-backto-AdjList" style="stroke:#181818;stroke-width:1;stroke-dasharray:7.0,7.0;"/><polygon fill="none" points="382.51,404.73,380.0614,423.545,391.8402,421.2511,382.51,404.73" style="stroke:#181818;stroke-width:1;"/></g><!--reverse link ReferenceTable to AdjList--><g id="link_ReferenceTable_AdjList"><path codeLine="20" d="M482.745,429.456 C461.335,449.476 444.91,464.86 426.71,481.88 " fill="none" id="ReferenceTable-backto-AdjList" style="stroke:#181818;stroke-width:1;"/><polygon fill="#181818" points="491.51,421.26,484.3955,422.4363,482.745,429.456,489.8595,428.2797,491.51,421.26" style="stroke:#181818;stroke-width:1;"/></g><!--reverse link IntTable to SingleIntTable--><g id="link_IntTable_SingleIntTable"><path d="M435.2168,262.8483 C376.0868,295.9783 314.85,330.28 268.29,356.37 " fill="none" id="IntTable-backto-SingleIntTable" style="stroke:#181818;stroke-width:1;"/><polygon fill="none" points="450.92,254.05,432.2841,257.614,438.1496,268.0827,450.92,254.05" style="stroke:#181818;stroke-width:1;"/></g><!--reverse link VarSource to SingleIntTableRow--><g id="link_VarSource_SingleIntTableRow"><path d="M107.4032,418.0078 C127.6132,440.0878 145.67,459.83 165.84,481.87 " fill="none" id="VarSource-backto-SingleIntTableRow" style="stroke:#181818;stroke-width:1;stroke-dasharray:7.0,7.0;"/><polygon fill="none" points="95.25,404.73,102.9773,422.0588,111.8292,413.9567,95.25,404.73" style="stroke:#181818;stroke-width:1;"/></g><!--reverse link SingleIntTable to SingleIntTableRow--><g id="link_SingleIntTable_SingleIntTableRow"><path codeLine="24" d="M215.7784,416.1448 C208.6184,438.2248 201.63,459.83 194.49,481.87 " fill="none" id="SingleIntTable-backto-SingleIntTableRow" style="stroke:#181818;stroke-width:1;"/><polygon fill="#181818" points="219.48,404.73,213.8243,409.2036,215.7784,416.1448,221.4342,411.6713,219.48,404.73" style="stroke:#181818;stroke-width:1;"/></g><!--reverse link Source to PtrSource--><g id="link_Source_PtrSource"><path d="M1525.9732,66.4386 C1439.8632,68.0586 1250.22,79.32 1095,150 C1077.94,157.77 1061.58,170.88 1049.18,182.41 " fill="none" id="Source-backto-PtrSource" style="stroke:#181818;stroke-width:1;"/><polygon fill="none" points="1543.97,66.1,1525.8603,60.4396,1526.086,72.4375,1543.97,66.1" style="stroke:#181818;stroke-width:1;"/></g><!--reverse link Source to OccSource--><g id="link_Source_OccSource"><path d="M1526.0297,72.2673 C1459.4297,80.3073 1340.93,99.74 1237,150 C1219.96,158.24 1203.16,171.09 1190.19,182.35 " fill="none" id="Source-backto-OccSource" style="stroke:#181818;stroke-width:1;"/><polygon fill="none" points="1543.9,70.11,1525.3106,66.3106,1526.7488,78.2241,1543.9,70.11" style="stroke:#181818;stroke-width:1;"/></g><!--reverse link Source to VarsSource--><g id="link_Source_VarsSource"><path d="M1558.6541,104.016 C1541.4241,129.856 1523.62,156.57 1506.38,182.43 " fill="none" id="Source-backto-VarsSource" style="stroke:#181818;stroke-width:1;"/><polygon fill="none" points="1568.64,89.04,1553.6621,100.6874,1563.6461,107.3447,1568.64,89.04" style="stroke:#181818;stroke-width:1;"/></g><!--reverse link Source to VarSource--><g id="link_Source_VarSource"><path d="M1629.8815,99.6897 C1665.0915,125.5297 1707.36,156.57 1742.58,182.43 " fill="none" id="Source-backto-VarSource" style="stroke:#181818;stroke-width:1;"/><polygon fill="none" points="1615.37,89.04,1626.3316,104.5269,1633.4314,94.8526,1615.37,89.04" style="stroke:#181818;stroke-width:1;"/></g><!--reverse link Source to BoolSource--><g id="link_Source_BoolSource"><path d="M1641.829,78.9235 C1694.299,91.3035 1770.47,112.5 1844,150 C1861.32,158.83 1878.96,171.45 1892.88,182.42 " fill="none" id="Source-backto-BoolSource" style="stroke:#181818;stroke-width:1;"/><polygon fill="none" points="1624.31,74.79,1640.4511,84.7632,1643.2068,73.0838,1624.31,74.79" style="stroke:#181818;stroke-width:1;"/></g><!--reverse link PtrSource to navCSP--><g id="link_PtrSource_navCSP"><path codeLine="44" d="M1047.116,235.7073 C1062.756,257.1473 1083.81,284.49 1108,310 C1123.59,326.43 1142.61,343.25 1158.08,356.23 " fill="none" id="PtrSource-backto-navCSP" style="stroke:#181818;stroke-width:1;"/><polygon fill="#181818" points="1043.58,230.86,1045.6525,240.4883,1046.5267,234.8994,1052.1156,235.7736,1043.58,230.86" style="stroke:#181818;stroke-width:1;"/><text fill="#000000" font-family="sans-serif" font-size="13" lengthAdjust="spacing" textLength="67.355" x="1109" y="306.0669">navsource</text></g><!--reverse link NavTable to navCSP--><g id="link_NavTable_navCSP"><path codeLine="45" d="M1249.3732,255.6719 C1217.9432,275.3319 1193.06,291.2 1192,293 C1180.78,312.06 1180.8,337.75 1182.85,356.17 " fill="none" id="NavTable-backto-navCSP" style="stroke:#181818;stroke-width:1;"/><polygon fill="#181818" points="1254.46,252.49,1244.7085,253.8716,1250.221,255.1416,1248.951,260.654,1254.46,252.49" style="stroke:#181818;stroke-width:1;"/><text fill="#000000" font-family="sans-serif" font-size="13" lengthAdjust="spacing" textLength="63.6543" x="1193" y="306.0669">navtarget</text></g><!--reverse link navCSP to nav2ptrCSP--><g id="link_navCSP_nav2ptrCSP"><path d="M1155.5916,418.4443 C1136.8216,440.5243 1120.4,459.83 1101.66,481.87 " fill="none" id="navCSP-backto-nav2ptrCSP" style="stroke:#181818;stroke-width:1;"/><polygon fill="none" points="1167.25,404.73,1151.0202,414.5582,1160.163,422.3304,1167.25,404.73" style="stroke:#181818;stroke-width:1;"/></g><!--reverse link PtrSource to nav2ptrCSP--><g id="link_PtrSource_nav2ptrCSP"><path d="M1009.0889,247.1686 C991.8489,287.4586 969.81,355.9 997,421 C1007.32,445.7 1028.82,466.83 1047.61,481.73 " fill="none" id="PtrSource-backto-nav2ptrCSP" style="stroke:#181818;stroke-width:1;stroke-dasharray:7.0,7.0;"/><polygon fill="none" points="1016.17,230.62,1003.5727,244.8083,1014.6051,249.529,1016.17,230.62" style="stroke:#181818;stroke-width:1;"/></g><!--reverse link navCSP to nav2intsCSP--><g id="link_navCSP_nav2intsCSP"><path d="M1202.2403,421.5537 C1210.6403,443.6337 1216.81,459.83 1225.2,481.87 " fill="none" id="navCSP-backto-nav2intsCSP" style="stroke:#181818;stroke-width:1;"/><polygon fill="none" points="1195.84,404.73,1196.6324,423.6871,1207.8482,419.4202,1195.84,404.73" style="stroke:#181818;stroke-width:1;"/></g><!--reverse link VarsSource to nav2intsCSP--><g id="link_VarsSource_nav2intsCSP"><path d="M1447.4052,241.675 C1434.0352,251.945 1432.12,252.97 1417,263 C1360.4,300.55 1327.24,286.82 1285,340 C1251.25,382.5 1239.73,447.38 1235.88,481.75 " fill="none" id="VarsSource-backto-nav2intsCSP" style="stroke:#181818;stroke-width:1;stroke-dasharray:7.0,7.0;"/><polygon fill="none" points="1461.68,230.71,1443.7502,236.9167,1451.0602,246.4332,1461.68,230.71" style="stroke:#181818;stroke-width:1;"/></g><!--reverse link navCSP to nav2intCSP--><g id="link_navCSP_nav2intCSP"><path d="M1246.4533,405.9724 C1263.5633,412.9324 1266.82,414.1 1285,421 C1346.2,444.21 1417.01,469.16 1464.97,485.79 " fill="none" id="navCSP-backto-nav2intCSP" style="stroke:#181818;stroke-width:1;"/><polygon fill="none" points="1229.78,399.19,1244.1925,411.5301,1248.7141,400.4146,1229.78,399.19" style="stroke:#181818;stroke-width:1;"/></g><!--reverse link VarSource to nav2intCSP--><g id="link_VarSource_nav2intCSP"><path d="M1758.0524,247.3036 C1736.4924,300.9936 1690.92,413.53 1684,421 C1655.02,452.3 1611.72,473.85 1577.03,487.28 " fill="none" id="VarSource-backto-nav2intCSP" style="stroke:#181818;stroke-width:1;stroke-dasharray:7.0,7.0;"/><polygon fill="none" points="1764.76,230.6,1752.4846,245.0677,1763.6203,249.5394,1764.76,230.6" style="stroke:#181818;stroke-width:1;"/></g><!--reverse link VarSource to SizeNode--><g id="link_VarSource_SizeNode"><path d="M1730.2373,241.3194 C1715.7973,252.0394 1712.26,253.7 1695,263 C1663.03,280.22 1646.6,269.4 1619,293 C1612.34,298.7 1615.34,303.95 1609,310 C1588.28,329.76 1576.96,325.98 1552,340 C1542.8,345.17 1533,350.91 1523.83,356.37 " fill="none" id="VarSource-backto-SizeNode" style="stroke:#181818;stroke-width:1;stroke-dasharray:7.0,7.0;"/><polygon fill="none" points="1744.69,230.59,1726.6609,236.5019,1733.8138,246.137,1744.69,230.59" style="stroke:#181818;stroke-width:1;"/></g><!--reverse link Source to SizeNode--><g id="link_Source_SizeNode"><path codeLine="53" d="M1585.6354,95.2554 C1587.1154,132.9454 1586.56,203.2 1565,263 C1552.07,298.86 1525.56,334.28 1506.83,356.48 " fill="none" id="Source-backto-SizeNode" style="stroke:#181818;stroke-width:1;"/><polygon fill="#181818" points="1585.4,89.26,1581.7562,98.41,1585.5962,94.2561,1589.7501,98.0961,1585.4,89.26" style="stroke:#181818;stroke-width:1;"/><text fill="#000000" font-family="sans-serif" font-size="13" lengthAdjust="spacing" textLength="68.6626" x="1585" y="211.0669">sizesource</text></g><!--reverse link VarSource to SumNode--><g id="link_VarSource_SumNode"><path d="M1731.8899,241.4819 C1717.3699,252.5819 1713.17,254.38 1695,263 C1637.66,290.19 1478.46,315.31 1420,340 C1409.18,344.57 1397.96,350.52 1387.82,356.42 " fill="none" id="VarSource-backto-SumNode" style="stroke:#181818;stroke-width:1;stroke-dasharray:7.0,7.0;"/><polygon fill="none" points="1746.19,230.55,1728.2459,236.7152,1735.5339,246.2486,1746.19,230.55" style="stroke:#181818;stroke-width:1;"/></g><!--reverse link VarsSource to SumNode--><g id="link_VarsSource_SumNode"><path codeLine="55" d="M1468.4791,235.3669 C1441.8791,268.2869 1397.23,323.53 1370.67,356.4 " fill="none" id="VarsSource-backto-SumNode" style="stroke:#181818;stroke-width:1;"/><polygon fill="#181818" points="1472.25,230.7,1463.4823,235.1864,1469.1075,234.5891,1469.7048,240.2143,1472.25,230.7" style="stroke:#181818;stroke-width:1;"/><text fill="#000000" font-family="sans-serif" font-size="13" lengthAdjust="spacing" textLength="71.1318" x="1422" y="306.0669">sumsource</text></g><!--reverse link BoolSource to LessThanNode--><g id="link_BoolSource_LessThanNode"><path d="M1900.0393,246.4966 C1888.9993,267.7066 1879.81,283.78 1862,310 C1851.03,326.15 1837.29,343.24 1826.17,356.43 " fill="none" id="BoolSource-backto-LessThanNode" style="stroke:#181818;stroke-width:1;stroke-dasharray:7.0,7.0;"/><polygon fill="none" points="1908.35,230.53,1894.7171,243.7263,1905.3614,249.2668,1908.35,230.53" style="stroke:#181818;stroke-width:1;"/></g><!--reverse link VarSource to LessThanNode--><g id="link_VarSource_LessThanNode"><path codeLine="57" d="M1779.4166,236.5989 C1785.5366,269.5189 1795.59,323.53 1801.7,356.4 " fill="none" id="VarSource-backto-LessThanNode" style="stroke:#181818;stroke-width:1;"/><polygon fill="#181818" points="1778.32,230.7,1776.0323,240.2795,1779.2339,235.6158,1783.8976,238.8173,1778.32,230.7" style="stroke:#181818;stroke-width:1;"/><text fill="#000000" font-family="sans-serif" font-size="13" lengthAdjust="spacing" textLength="60.0933" x="1793" y="306.0669">left, right</text></g><!--reverse link VarSource to PlusNode--><g id="link_VarSource_PlusNode"><path d="M1729.6756,241.2694 C1715.2656,251.8594 1711.96,253.49 1695,263 C1665.84,279.36 1645.6,265.91 1626,293 C1612.83,311.2 1612.28,337.52 1614.12,356.34 " fill="none" id="VarSource-backto-PlusNode" style="stroke:#181818;stroke-width:1;stroke-dasharray:7.0,7.0;"/><polygon fill="none" points="1744.18,230.61,1726.1225,236.4346,1733.2287,246.1042,1744.18,230.61" style="stroke:#181818;stroke-width:1;"/></g><!--reverse link VarSource to PlusNode--><g id="link_VarSource_PlusNode"><path codeLine="60" d="M1736.2721,234.1597 C1704.5821,256.7197 1665.37,285.23 1659,293 C1643.4,312.02 1632.13,337.96 1625.4,356.46 " fill="none" id="VarSource-backto-PlusNode-1" style="stroke:#181818;stroke-width:1;"/><polygon fill="#181818" points="1741.16,230.68,1731.5083,232.6409,1737.0867,233.5797,1736.1479,239.1581,1741.16,230.68" style="stroke:#181818;stroke-width:1;"/><text fill="#000000" font-family="sans-serif" font-size="13" lengthAdjust="spacing" textLength="60.0933" x="1660" y="306.0669">left, right</text></g><!--reverse link BoolSource to LogicalNode--><g id="link_BoolSource_LogicalNode"><path d="M1917.5753,248.8258 C1916.7353,269.9658 1918,283.74 1926,310 C1931.06,326.62 1940.84,343.44 1949.58,356.38 " fill="none" id="BoolSource-backto-LogicalNode" style="stroke:#181818;stroke-width:1;stroke-dasharray:7.0,7.0;"/><polygon fill="none" points="1918.29,230.84,1911.5801,248.5876,1923.5706,249.064,1918.29,230.84" style="stroke:#181818;stroke-width:1;"/></g><!--reverse link BoolSource to LogicalNode--><g id="link_BoolSource_LogicalNode"><path codeLine="63" d="M1927.9206,236.4881 C1936.9106,269.4081 1951.71,323.53 1960.69,356.4 " fill="none" id="BoolSource-backto-LogicalNode-1" style="stroke:#181818;stroke-width:1;"/><polygon fill="#181818" points="1926.34,230.7,1924.8523,240.4358,1927.6572,235.5234,1932.5697,238.3283,1926.34,230.7" style="stroke:#181818;stroke-width:1;"/><text fill="#000000" font-family="sans-serif" font-size="13" lengthAdjust="spacing" textLength="60.0933" x="1948" y="306.0669">left, right</text></g><!--reverse link PtrSource to SelfNode--><g id="link_PtrSource_SelfNode"><path d="M1027.8079,248.5614 C1028.4579,269.5214 1029.92,283.17 1036,310 C1039.61,325.96 1046.04,343.19 1051.6,356.5 " fill="none" id="PtrSource-backto-SelfNode" style="stroke:#181818;stroke-width:1;stroke-dasharray:7.0,7.0;"/><polygon fill="none" points="1027.25,230.57,1021.8108,248.7473,1033.8051,248.3754,1027.25,230.57" style="stroke:#181818;stroke-width:1;"/></g><!--SRC=[ZLF1Rk8m5BpdAzwnNT7B7j5UjfmgqHQLxbwggZBc4R9rR6GxMrIKV- -BOs8x9D03Kl8oCvut7dQClxCSuS_zVBPS7B8CW0jc3Dn9-ynM0g4eTm9BbDR00_llPWT20HJIWbOVPW9S2TEDoaBEc5vFe6Jxvi5z8BM_JB-ylhpIsEfYdqn1LaAG50rh-dKUVbk2hYgBhHFSMvJhOErGZo2Vr4TicyumIrLftZ9wgZzkRaxfiOidtA16oKTSG4X3h2RLAjeC5ETlqRv-Fszv_MzU61iRNLZT-WHdj7UmCzgIOdlBGkO2EpTdGagHfo556VL4cwDFs5bMPzdEz-TnrlR71O5wmsY9OrsIXAwkkvSgVcawv5z3BRo0czU9TfnJc8O0Zp4Cunuv_nOkDESoy5kuMwN4A33y-MXnIhCbXvr-qItuBzFcmRWnGRgW-mZBT8v9MsZuSsTrWpWQy8IX7aRbQOYqXnbWdlcl9TppXwO5J1l-YGzgZOFeDgGeeGuz1KEFNKXUgoelI4LtxkGyWTIgiYSsHsEUjqps5SCj7nKZmOGq1O4REm5TvDladXQYCgD61rGx_AZYNEK5P-A2rwYWpcn46bLUejZqPUCAPVKN]--></g></svg>